<?xml version="1.0" standalone="no"?>
<!DOCTYPE svg PUBLIC "-//W3C//DTD SVG 20010904//EN"
 "http://www.w3.org/TR/2001/REC-SVG-20010904/DTD/svg10.dtd">
<svg version="1.0" xmlns="http://www.w3.org/2000/svg"
 width="591.000000pt" height="591.000000pt" viewBox="0 0 591.000000 591.000000"
 preserveAspectRatio="xMidYMid meet">

<g transform="translate(0.000000,591.000000) scale(0.100000,-0.100000)"
fill="#000000" stroke="none">
<path d="M2401 5888 c-30 -5 -56 -9 -57 -11 -1 -1 5 -44 14 -95 12 -70 20 -91
30 -87 7 3 19 5 26 5 9 0 13 13 12 37 -1 33 2 37 32 45 41 11 60 47 44 82 -13
29 -33 34 -101 24z m46 -39 c15 -15 5 -39 -17 -39 -19 0 -34 25 -24 41 7 12
28 11 41 -2z"/>
<path d="M2722 5873 c-12 -2 -27 -13 -32 -24 -9 -16 -7 -19 10 -19 11 0 29 6
40 12 15 10 22 10 31 1 10 -10 8 -14 -7 -19 -61 -22 -84 -34 -84 -46 0 -24 17
-40 41 -39 13 0 44 1 68 1 l43 1 -4 56 c-7 76 -28 91 -106 76z m54 -98 c-7
-20 -46 -19 -46 0 0 9 10 19 23 24 24 9 33 0 23 -24z"/>
<path d="M2888 5863 c-35 -42 -28 -94 16 -115 14 -6 23 -15 20 -19 -3 -5 2 -9
10 -9 27 0 17 -18 -11 -23 -23 -3 -21 -4 9 -6 40 -1 56 12 39 33 -8 10 -5 16
14 26 32 17 40 40 15 40 -11 0 -29 -6 -40 -12 -28 -18 -55 10 -46 47 6 25 9
26 51 19 30 -4 45 -3 45 5 0 31 -97 43 -122 14z"/>
<path d="M3066 5854 c-5 -13 1 -15 36 -12 50 4 63 -17 16 -27 -66 -13 -69 -15
-66 -43 3 -25 7 -27 51 -28 26 0 50 -4 54 -7 3 -4 15 -7 25 -7 15 0 18 8 18
58 0 32 -5 63 -12 70 -18 18 -114 16 -122 -4z m82 -71 c-4 -23 -48 -31 -48
-10 0 9 6 18 13 20 25 11 38 7 35 -10z"/>
<path d="M2557 5853 c-2 -5 -2 -36 1 -70 4 -58 6 -63 28 -63 22 0 24 4 24 51
0 42 3 52 20 56 11 3 20 12 20 19 0 17 -37 19 -43 2 -4 -10 -6 -10 -6 0 -1 13
-37 17 -44 5z"/>
<path d="M3250 5845 c-18 -22 -3 -53 30 -60 33 -7 45 -19 35 -36 -5 -7 -14 -5
-28 4 -13 8 -30 11 -41 7 -18 -6 -18 -7 5 -23 46 -33 126 -13 118 28 -4 18
-31 37 -73 50 -15 4 -17 8 -7 18 9 9 16 9 31 -1 24 -14 50 -16 50 -2 0 28 -98
41 -120 15z"/>
<path d="M3617 5853 c-4 -3 -7 -14 -7 -23 0 -15 -7 -17 -45 -13 -43 5 -45 4
-61 -30 -29 -60 -8 -95 61 -103 11 -1 29 -5 41 -9 19 -6 22 0 37 77 10 46 17
89 17 96 0 13 -32 17 -43 5z m-29 -92 c4 -27 -14 -52 -34 -44 -28 11 -8 79 21
70 5 -2 11 -14 13 -26z"/>
<path d="M2132 5775 c-65 -28 -50 -75 25 -75 56 0 55 -24 -1 -27 -44 -1 -56
-10 -36 -24 20 -13 78 -4 101 17 40 36 11 77 -50 72 -16 -2 -29 2 -28 7 1 6
14 10 29 10 34 1 47 13 28 25 -20 13 -29 12 -68 -5z"/>
<path d="M3700 5765 c-13 -16 -12 -16 49 -19 13 -1 26 -6 28 -13 3 -8 -13 -13
-49 -15 -49 -3 -53 -5 -56 -30 -4 -31 26 -53 64 -45 13 2 25 1 26 -3 2 -4 12
-10 23 -14 18 -5 22 1 33 49 15 63 12 72 -34 91 -43 18 -68 18 -84 -1z m70
-80 c0 -9 -7 -18 -15 -21 -23 -9 -45 3 -39 21 8 20 54 20 54 0z"/>
<path d="M3962 5673 c-18 -47 -31 -87 -30 -88 2 -2 13 -6 26 -10 19 -5 24 -2
33 24 13 36 9 34 45 20 39 -14 73 -3 85 28 14 39 2 63 -44 82 -85 36 -79 40
-115 -56z m103 21 c12 -12 13 -19 4 -30 -21 -26 -55 -7 -44 25 8 25 18 27 40
5z"/>
<path d="M1817 5733 c-17 -4 -17 -13 0 -60 4 -9 -5 -13 -26 -13 -51 0 -68 -56
-30 -104 22 -29 76 -36 85 -12 3 7 16 14 30 14 14 0 27 2 30 4 5 6 -59 178
-66 177 -3 -1 -13 -3 -23 -6z m10 -101 c11 -7 16 -26 14 -49 -2 -24 -40 -14
-47 11 -9 37 6 55 33 38z"/>
<path d="M1964 5726 c-52 -23 -61 -82 -17 -116 50 -39 123 -6 123 56 0 23 -7
38 -26 53 -31 24 -38 25 -80 7z m56 -47 c15 -27 6 -49 -20 -49 -21 0 -41 35
-33 58 8 19 41 14 53 -9z"/>
<path d="M4146 5609 c-42 -33 -34 -89 16 -115 83 -43 148 51 77 110 -37 31
-58 33 -93 5z m78 -35 c9 -22 -11 -54 -35 -54 -25 0 -34 22 -19 49 13 25 45
28 54 5z"/>
<path d="M2700 5599 c-887 -78 -1664 -527 -2162 -1249 -84 -122 -117 -177
-193 -330 -139 -277 -221 -541 -272 -870 -25 -163 -25 -576 0 -745 79 -525
282 -990 611 -1395 80 -99 302 -321 396 -396 357 -287 713 -464 1175 -585 90
-24 91 -24 695 -24 l605 0 118 33 c228 63 390 124 569 213 440 218 750 478
1075 904 145 190 320 543 402 811 86 280 115 487 115 809 1 261 -7 347 -50
558 -133 658 -517 1268 -1057 1675 -585 442 -1312 654 -2027 591z m271 -75
c78 -40 78 -198 0 -238 -16 -9 -44 -16 -61 -16 -29 0 -30 -2 -30 -44 0 -26 6
-48 15 -56 34 -28 17 -40 -55 -40 -63 0 -70 2 -70 20 0 11 5 20 10 20 6 0 10
60 10 159 0 96 -4 162 -10 166 -5 3 -10 15 -10 26 0 17 8 19 85 19 59 0 96 -5
116 -16z m385 -22 c12 -6 29 -27 38 -47 24 -49 13 -99 -29 -132 l-33 -26 21
-17 c18 -15 21 -29 22 -99 l1 -81 -37 0 c-68 0 -76 25 -53 153 4 19 1 29 -11
33 -25 10 -29 -2 -32 -88 -1 -44 -4 -82 -5 -83 -6 -5 -108 12 -115 18 -3 4 -1
17 6 30 18 33 51 319 39 334 -6 7 -8 19 -5 26 4 12 20 12 89 2 45 -6 93 -16
104 -23z m-727 -4 c5 -13 12 -38 16 -55 5 -28 4 -33 -12 -33 -10 0 -28 16 -41
35 -12 19 -26 35 -32 35 -25 0 -15 -26 44 -113 74 -108 93 -161 76 -213 -14
-41 -42 -58 -81 -50 -16 3 -29 1 -29 -4 0 -6 -7 -10 -15 -10 -8 0 -19 17 -25
43 -6 23 -13 50 -16 60 -10 33 30 17 58 -23 15 -22 32 -40 37 -40 23 0 17 34
-15 77 -86 120 -105 154 -111 203 -8 71 14 103 68 98 21 -2 39 0 39 4 0 18 31
6 39 -14z m1079 -63 c2 -2 -6 -82 -17 -180 -11 -97 -17 -183 -14 -191 3 -8 3
-20 0 -28 -5 -12 -15 -12 -67 1 -60 16 -60 16 -45 39 23 36 19 61 -11 68 -33
9 -38 3 -37 -39 1 -38 -7 -42 -53 -25 l-27 11 20 22 c27 30 146 304 138 317
-4 6 -4 17 -1 25 4 12 13 12 58 -1 29 -9 54 -17 56 -19z m-1419 -12 c10 -21
42 -94 71 -163 29 -69 59 -132 67 -141 23 -27 15 -37 -41 -53 -70 -21 -69 -21
-62 12 9 38 -12 63 -41 51 -26 -10 -31 -47 -8 -55 25 -10 17 -31 -16 -43 -46
-16 -52 -14 -46 17 9 44 -25 335 -40 351 -21 20 -11 33 33 47 59 18 62 17 83
-23z m-496 -395 l72 -3 -50 -35 c-27 -19 -53 -38 -58 -41 -6 -4 -1 -33 12 -70
11 -35 21 -67 21 -71 0 -5 -24 9 -53 32 -30 22 -57 40 -62 40 -5 0 -32 -18
-62 -40 -29 -23 -53 -37 -53 -32 0 5 9 35 20 67 11 32 20 61 20 64 0 3 -26 24
-56 46 l-56 40 70 3 71 3 23 70 22 71 24 -71 23 -70 72 -3z m2452 63 l18 -60
71 -3 71 -3 -57 -42 -57 -43 21 -60 c11 -34 18 -64 15 -67 -3 -3 -27 11 -53
31 -46 35 -68 43 -78 28 -2 -4 -25 -22 -50 -40 l-45 -33 15 48 c30 98 31 94
-32 141 l-58 42 75 0 74 0 19 65 c10 36 22 63 25 60 4 -2 16 -31 26 -64z
m-1045 -905 c132 -394 244 -724 249 -735 10 -18 34 -18 806 -13 464 3 795 1
795 -4 0 -5 -60 -50 -133 -101 -114 -80 -372 -260 -732 -512 -245 -171 -415
-293 -419 -300 -3 -4 17 -72 44 -152 27 -79 121 -358 210 -619 187 -552 233
-691 228 -695 -3 -3 -161 106 -493 340 -109 77 -233 165 -276 195 -43 30 -142
100 -219 155 -312 221 -303 216 -321 202 -29 -21 -166 -117 -379 -267 -113
-79 -311 -218 -440 -310 -372 -264 -453 -320 -457 -316 -4 4 31 112 296 895
105 310 191 567 191 571 0 4 -48 40 -107 81 -60 41 -124 85 -144 99 -20 14
-97 68 -173 120 -75 52 -219 154 -320 225 -102 72 -266 186 -365 255 -99 69
-181 129 -181 134 0 5 332 7 795 4 579 -4 797 -2 803 6 5 6 118 339 252 739
133 400 245 726 247 723 2 -2 112 -326 243 -720z m-1995 509 l17 -64 75 -3 75
-3 -56 -40 c-30 -22 -56 -47 -56 -56 0 -9 7 -36 15 -59 24 -69 19 -74 -36 -30
-28 22 -54 40 -58 40 -5 0 -29 -16 -55 -36 -26 -20 -50 -34 -53 -31 -3 3 2 27
11 53 9 26 16 55 16 64 0 9 -26 35 -57 58 l-57 42 76 0 76 0 18 65 c10 36 22
65 25 65 3 0 14 -29 24 -65z m3534 -2 l17 -58 75 -5 74 -5 -50 -35 c-27 -19
-53 -38 -58 -41 -8 -6 8 -79 30 -136 4 -11 -9 -6 -40 18 -26 19 -54 38 -61 43
-10 7 -30 -2 -70 -32 -31 -24 -56 -39 -56 -34 0 5 9 35 20 68 l21 59 -24 20
c-12 11 -39 32 -58 47 l-34 27 72 1 71 0 22 66 c12 36 24 63 27 61 2 -3 12
-31 22 -64z m-3906 -441 c5 -7 14 -12 20 -11 7 1 35 1 62 0 l50 -2 -29 -22
c-16 -12 -40 -31 -54 -43 l-25 -21 21 -63 c12 -35 21 -65 19 -66 -2 -2 -29 15
-60 37 l-57 41 -52 -41 c-28 -23 -53 -39 -56 -37 -3 4 14 66 35 122 2 6 -22
30 -54 53 -62 44 -62 44 32 41 l51 -1 23 73 24 73 21 -60 c12 -33 25 -66 29
-73z m4390 -7 c37 0 67 -2 67 -5 0 -3 -22 -23 -50 -43 -27 -21 -50 -43 -50
-51 0 -7 9 -38 19 -69 11 -32 18 -57 15 -57 -3 0 -29 18 -59 41 l-54 41 -55
-42 c-31 -22 -56 -36 -56 -31 0 5 8 36 19 69 l18 60 -53 37 c-30 21 -54 40
-54 44 0 3 30 6 66 6 l67 0 19 55 c10 30 21 62 24 70 3 9 15 -14 28 -55 l22
-70 67 0z m-4623 -595 l73 -5 -57 -39 c-31 -21 -56 -44 -56 -51 0 -6 9 -38 20
-70 11 -32 19 -60 17 -61 -1 -2 -26 15 -54 37 -29 21 -56 39 -61 39 -5 0 -30
-16 -56 -36 -26 -20 -49 -34 -51 -32 -3 2 4 32 14 66 l19 63 -56 42 -56 42 72
3 71 3 11 41 c6 22 16 52 22 67 10 25 11 23 32 -39 l23 -65 73 -5z m4930 0
l74 0 -58 -42 c-63 -47 -62 -43 -32 -141 l15 -48 -45 33 c-25 18 -48 36 -50
40 -10 15 -32 7 -78 -28 -26 -20 -50 -34 -53 -31 -3 3 4 33 15 67 l21 60 -56
43 -57 42 71 3 70 3 13 41 c29 99 31 100 54 26 l21 -68 75 0z m-5121 -530 l21
-69 73 -3 72 -3 -50 -35 c-27 -19 -53 -38 -58 -41 -6 -4 -1 -33 12 -70 11 -35
21 -67 21 -71 0 -4 -26 12 -57 36 l-58 44 -55 -44 c-30 -24 -55 -42 -57 -41
-1 2 7 34 18 71 12 39 17 71 12 75 -5 3 -31 22 -57 41 l-48 35 72 5 73 5 20
68 c11 37 21 67 23 67 1 0 12 -31 23 -70z m5126 -9 l18 -60 71 -3 71 -3 -53
-37 c-57 -42 -60 -51 -36 -122 9 -26 14 -50 11 -53 -3 -3 -27 11 -53 31 -46
35 -68 43 -78 28 -2 -4 -25 -22 -50 -40 l-45 -33 15 48 c30 98 31 94 -30 138
l-55 40 72 5 71 5 20 62 c11 34 22 60 26 58 4 -2 15 -31 25 -64z m-5125 -686
l22 -65 71 0 72 -1 -30 -22 c-16 -12 -43 -33 -58 -47 l-28 -25 21 -59 c11 -33
20 -63 20 -68 0 -5 -24 9 -53 32 -30 22 -57 40 -62 40 -5 0 -32 -18 -62 -41
l-54 -40 7 28 c4 15 13 45 21 67 7 21 13 42 13 46 0 3 -26 24 -57 46 l-57 39
71 3 72 3 21 64 c12 36 23 65 25 65 2 0 13 -29 25 -65z m5125 -4 l18 -60 70
-3 71 -3 -57 -42 -56 -43 21 -60 c11 -34 18 -63 15 -66 -3 -3 -26 11 -52 30
-46 35 -69 44 -79 28 -2 -4 -25 -22 -50 -40 l-45 -33 15 48 c30 98 31 94 -30
138 l-55 40 72 5 71 5 20 62 c11 34 22 60 26 58 4 -2 15 -31 25 -64z m-4925
-586 l22 -65 69 0 c38 0 69 -4 69 -8 0 -4 -12 -15 -27 -24 -16 -10 -41 -27
-56 -40 l-28 -23 21 -59 c11 -33 20 -63 20 -68 0 -6 -21 6 -47 25 -27 18 -53
37 -59 40 -6 4 -35 -11 -64 -33 -30 -22 -55 -38 -57 -37 -2 2 6 30 17 62 11
32 20 62 20 66 0 4 -22 24 -50 44 -27 20 -50 40 -50 44 0 5 24 8 53 7 28 -1
59 2 68 6 8 4 24 34 34 67 10 34 19 61 21 61 1 0 12 -29 24 -65z m4724 -7 l17
-58 52 -2 c29 0 60 -1 70 0 29 3 19 -11 -37 -52 l-54 -38 14 -47 c27 -89 29
-97 13 -85 -8 6 -33 25 -57 43 l-42 33 -55 -41 c-30 -23 -56 -41 -59 -41 -3 0
2 21 10 48 29 94 30 87 -25 128 -50 37 -64 57 -38 53 6 -1 37 -1 68 0 l56 1
18 66 c10 36 21 62 25 57 4 -4 15 -34 24 -65z m-4326 -584 l18 -59 74 -5 74
-5 -57 -43 c-63 -47 -62 -45 -30 -136 7 -22 12 -40 10 -42 -1 -2 -26 15 -55
36 -29 22 -55 40 -58 40 -3 0 -28 -18 -57 -39 -28 -22 -53 -38 -54 -37 -2 2 6
32 17 67 l20 64 -32 25 c-18 14 -43 35 -57 47 l-26 22 72 1 71 0 22 66 c12 36
24 64 26 61 2 -2 12 -30 22 -63z m3927 -4 l18 -60 69 0 c37 0 68 -3 68 -7 0
-5 -23 -24 -50 -43 -54 -38 -57 -47 -35 -110 25 -70 19 -74 -40 -29 l-55 41
-55 -41 c-30 -22 -56 -41 -59 -41 -3 0 6 31 19 69 l23 69 -60 43 -60 44 75 3
75 3 18 64 c10 35 21 62 24 60 4 -2 15 -31 25 -65z m-3430 -385 l17 -64 75 -3
76 -3 -57 -39 c-31 -21 -56 -46 -56 -56 0 -9 9 -43 20 -75 22 -65 30 -65 -59
-1 l-41 29 -41 -29 c-89 -64 -81 -64 -59 1 11 32 20 66 20 75 0 9 -26 34 -57
56 l-57 39 76 3 76 3 17 64 c10 36 21 65 25 65 4 0 15 -29 25 -65z m2934 -2
l17 -58 74 -5 75 -5 -55 -39 c-30 -22 -57 -41 -59 -42 -2 -2 6 -33 18 -70 11
-37 20 -69 18 -70 -1 -2 -26 15 -54 37 -29 21 -55 39 -59 39 -4 0 -31 -18 -61
-40 -29 -23 -53 -37 -53 -32 0 5 9 35 20 68 l21 59 -24 20 c-12 11 -39 32 -58
47 l-34 27 72 1 71 0 22 66 c12 36 24 63 27 61 2 -3 12 -31 22 -64z m-683
-255 c-2 -12 17 -98 44 -191 49 -170 51 -187 15 -187 -5 0 -41 39 -79 86 -38
46 -70 83 -73 81 -9 -10 41 -157 54 -157 7 0 13 -9 13 -20 0 -11 -4 -20 -9
-20 -5 0 -23 -3 -41 -7 -32 -6 -33 -5 -26 21 8 32 -68 305 -90 322 -24 19 -16
41 19 53 36 13 34 14 125 -99 23 -29 42 -50 42 -47 0 25 -43 136 -55 141 -26
10 -16 33 18 43 39 12 50 7 43 -19z m-1516 -4 c101 -32 124 -59 116 -142 -8
-94 -67 -143 -150 -128 -31 6 -32 4 -43 -36 -8 -29 -8 -47 -1 -55 11 -14 3
-33 -16 -33 -7 0 -36 7 -64 15 -52 16 -66 36 -37 52 20 12 97 280 91 314 -9
47 -4 47 104 13z m341 -74 c34 0 35 -2 44 -95 l7 -70 31 74 31 73 45 -6 c54
-7 67 -18 47 -39 -19 -18 -60 -295 -51 -338 6 -27 4 -29 -22 -29 -49 0 -103
12 -103 23 0 6 6 18 14 26 12 14 41 179 33 188 -2 1 -15 -25 -29 -60 -31 -74
-54 -86 -63 -30 -18 114 -17 113 -31 23 -8 -47 -11 -97 -8 -113 5 -25 4 -27
-30 -27 -36 0 -47 15 -26 36 14 14 52 283 46 325 -6 39 0 53 22 44 7 -3 27 -5
43 -5z m812 -20 c53 -42 59 -132 11 -169 l-24 -19 25 -6 c28 -7 42 -29 55 -88
4 -24 11 -53 15 -64 6 -19 2 -23 -36 -29 -52 -9 -64 4 -74 78 -9 76 -14 87
-36 87 -15 0 -19 -5 -16 -17 3 -10 8 -40 12 -67 4 -27 12 -57 18 -67 6 -10 9
-20 7 -23 -3 -2 -33 -8 -68 -12 l-63 -7 7 40 c8 49 -23 276 -44 321 -8 18 -12
35 -9 38 8 8 96 21 148 23 33 1 54 -5 72 -19z m-353 -202 c0 -7 -5 -29 -10
-49 -10 -35 -12 -36 -67 -42 -32 -3 -59 -4 -61 -3 -2 2 2 22 8 45 10 39 13 41
50 41 21 0 42 5 45 10 9 14 35 12 35 -2z"/>
<path d="M2880 5405 c0 -96 2 -106 18 -103 15 3 17 16 17 103 0 87 -2 100 -17
103 -16 3 -18 -7 -18 -103z"/>
<path d="M3277 5482 c-12 -19 -20 -162 -9 -162 19 0 32 37 35 101 1 40 -2 63
-10 66 -6 2 -14 0 -16 -5z"/>
<path d="M3572 5258 c-30 -71 -30 -73 -11 -82 10 -5 21 -7 24 -5 7 7 27 150
22 155 -3 3 -18 -28 -35 -68z"/>
<path d="M2234 5295 c3 -22 8 -63 11 -91 6 -48 8 -51 31 -46 28 5 28 5 -16
107 -28 64 -30 66 -26 30z"/>
<path d="M2920 3315 c-7 -9 -10 -29 -7 -48 3 -23 -1 -39 -14 -56 -10 -13 -19
-28 -19 -35 0 -6 -33 -21 -73 -32 -39 -12 -101 -34 -137 -49 -38 -17 -85 -28
-115 -29 l-50 -1 0 40 c0 38 -2 41 -42 54 -51 18 -88 5 -104 -36 -14 -37 -5
-67 32 -101 l30 -28 -111 -229 c-61 -126 -109 -234 -106 -241 9 -23 116 -66
190 -77 55 -8 91 -8 144 2 79 14 192 63 191 83 0 7 -46 108 -103 223 l-102
210 60 8 c33 4 94 23 136 42 107 48 121 50 168 26 53 -27 102 -27 136 0 33 26
68 21 161 -22 36 -17 97 -36 135 -43 l70 -11 -105 -214 c-58 -117 -105 -217
-105 -223 0 -18 132 -69 210 -80 96 -14 173 -2 266 41 l63 30 -48 103 c-27 57
-78 163 -114 237 l-66 133 35 33 c42 40 46 84 9 120 -27 28 -46 30 -94 14 -27
-10 -31 -15 -31 -49 0 -30 -5 -40 -21 -45 -27 -9 -108 11 -199 50 -41 18 -92
35 -112 39 -29 5 -42 14 -54 39 -9 18 -21 35 -26 38 -6 4 -6 14 1 27 15 28 14
38 -5 56 -20 20 -58 21 -74 1z m-270 -761 c0 -2 -34 -4 -75 -4 l-75 0 0 158 1
157 74 -154 c41 -84 75 -155 75 -157z m980 0 c0 -2 -34 -4 -75 -4 l-75 0 1
158 0 157 75 -154 c41 -84 74 -155 74 -157z m-1200 146 l0 -150 -75 0 c-41 0
-75 2 -75 5 0 7 143 295 147 295 2 0 3 -67 3 -150z m980 0 l0 -150 -75 0 c-41
0 -75 2 -75 5 0 7 144 295 147 295 2 0 3 -67 3 -150z"/>
<path d="M1360 3260 c0 -38 4 -50 15 -50 8 0 15 9 15 20 0 16 7 20 30 20 17 0
30 5 30 10 0 6 -13 10 -30 10 -16 0 -30 5 -30 10 0 6 13 10 29 10 17 0 33 5
36 10 4 6 -13 10 -44 10 l-51 0 0 -50z"/>
<path d="M1480 3272 c0 -48 14 -62 62 -62 32 0 40 4 48 26 15 38 12 74 -5 74
-11 0 -15 -11 -15 -40 0 -38 -2 -40 -30 -40 -28 0 -30 2 -30 40 0 29 -4 40
-15 40 -11 0 -15 -11 -15 -38z"/>
<path d="M1630 3260 c0 -27 5 -50 10 -50 6 0 10 14 10 32 l0 32 33 -32 c46
-45 57 -41 57 18 0 38 -4 50 -15 50 -10 0 -15 -10 -15 -32 l0 -33 -26 33 c-38
48 -54 42 -54 -18z"/>
<path d="M1770 3260 l0 -50 44 0 c48 0 76 19 76 50 0 31 -28 50 -76 50 l-44 0
0 -50z m85 0 c0 -20 -6 -26 -27 -28 -25 -3 -28 0 -28 28 0 28 3 31 28 28 21
-2 27 -8 27 -28z"/>
<path d="M1928 3260 c-21 -37 -24 -50 -14 -50 8 0 18 5 21 10 3 6 22 10 41 10
19 0 34 -4 34 -10 0 -5 7 -10 15 -10 12 0 10 10 -10 50 -33 64 -52 64 -87 0z
m56 5 c4 -10 -1 -15 -14 -15 -13 0 -18 5 -14 15 4 8 10 15 14 15 4 0 10 -7 14
-15z"/>
<path d="M2060 3260 l0 -50 43 0 c30 0 49 6 60 18 38 42 9 82 -59 82 l-44 0 0
-50z m85 -1 c0 -19 -6 -25 -27 -27 -26 -3 -28 -1 -28 31 0 34 1 35 28 28 20
-6 27 -14 27 -32z"/>
<path d="M2218 3299 c-10 -5 -18 -21 -18 -34 0 -67 111 -77 133 -12 15 41 -67
74 -115 46z m88 -31 c8 -27 -7 -40 -42 -36 -19 2 -30 10 -33 22 -8 43 62 55
75 14z"/>
<path d="M2415 3263 l1 -48 52 -3 c32 -2 52 1 52 7 0 6 -18 11 -41 11 -28 0
-39 4 -36 13 2 6 12 11 21 9 9 -2 24 2 34 7 14 8 10 10 -20 11 -21 0 -38 5
-38 10 0 6 18 10 40 10 22 0 40 5 40 10 0 6 -24 10 -53 10 l-53 0 1 -47z"/>
<path d="M2550 3260 c0 -57 20 -69 21 -12 l1 37 15 -38 c20 -46 41 -45 59 3
l12 35 1 -37 c1 -24 6 -38 14 -38 9 0 13 15 12 48 0 40 -3 47 -21 50 -17 2
-25 -5 -34 -30 l-12 -33 -14 33 c-9 21 -21 32 -34 32 -17 0 -20 -7 -20 -50z"/>
<path d="M3321 3263 c-26 -41 -28 -49 -14 -52 10 -2 19 2 21 8 2 6 23 11 47
11 24 0 45 -5 47 -11 2 -6 12 -10 21 -8 15 4 13 10 -15 51 -43 63 -66 63 -107
1z m69 2 c11 -13 8 -15 -13 -15 -19 0 -25 4 -21 15 4 8 10 15 14 15 4 0 13 -7
20 -15z"/>
<path d="M3480 3260 l0 -50 63 0 c72 0 94 10 82 36 -5 11 -7 25 -6 33 4 22
-19 31 -81 31 l-58 0 0 -50z m105 20 c-3 -5 -19 -10 -36 -10 -16 0 -29 5 -29
10 0 6 16 10 36 10 21 0 33 -4 29 -10z m10 -40 c4 -6 -10 -10 -34 -10 -23 0
-41 5 -41 10 0 6 15 10 34 10 19 0 38 -4 41 -10z"/>
<path d="M3660 3260 c0 -43 3 -50 20 -50 13 0 20 7 20 20 0 12 7 20 16 20 9 0
27 -9 41 -20 14 -11 35 -20 47 -20 19 0 18 2 -9 25 -22 18 -26 24 -13 25 23 0
32 18 18 35 -9 10 -33 15 -76 15 l-64 0 0 -50z m110 20 c0 -5 -16 -10 -35 -10
-19 0 -35 5 -35 10 0 6 16 10 35 10 19 0 35 -4 35 -10z"/>
<path d="M3840 3260 c0 -43 3 -50 20 -50 17 0 20 7 20 50 0 43 -3 50 -20 50
-17 0 -20 -7 -20 -50z"/>
<path d="M3912 3263 l3 -48 63 -3 c38 -2 62 1 62 8 0 5 -20 10 -45 10 l-45 0
0 40 c0 34 -3 40 -21 40 -18 0 -20 -5 -17 -47z"/>
<path d="M4070 3264 c-23 -54 -23 -54 -10 -54 10 0 33 39 44 78 13 41 -13 23
-34 -24z"/>
<path d="M4140 3300 c-23 -15 -3 -24 26 -11 26 11 44 8 44 -9 0 -5 -18 -19
-40 -30 -22 -11 -40 -25 -40 -30 0 -6 25 -10 55 -10 30 0 55 5 55 10 0 6 -15
10 -32 10 l-33 0 33 20 c35 21 42 44 16 54 -23 9 -67 7 -84 -4z"/>
<path d="M4282 3298 c-16 -16 -15 -63 2 -77 20 -17 77 -10 90 11 7 11 7 26 0
45 -7 22 -16 29 -44 31 -19 2 -41 -3 -48 -10z m58 -13 c10 -12 10 -21 2 -40
-15 -32 -42 -23 -42 14 0 42 17 53 40 26z"/>
<path d="M4420 3295 c-17 -20 -16 -65 1 -76 8 -5 28 -9 46 -9 34 0 53 21 53
59 0 37 -75 57 -100 26z m60 -34 c0 -33 -7 -42 -26 -34 -14 5 -20 54 -8 66 13
13 34 -7 34 -32z"/>
<path d="M4555 3299 c-11 -17 1 -22 24 -9 29 15 50 1 26 -17 -18 -12 -18 -13
-1 -13 11 0 16 -6 14 -17 -4 -19 -19 -21 -52 -8 -14 6 -18 4 -14 -6 7 -21 81
-24 98 -4 9 11 10 19 2 27 -6 6 -8 17 -5 25 3 8 0 19 -8 24 -20 12 -76 11 -84
-2z"/>
<path d="M2225 503 c-9 -32 -21 -75 -27 -96 -12 -40 -7 -53 16 -44 16 6 48
105 50 156 2 57 -21 47 -39 -16z"/>
<path d="M3294 419 c9 -83 14 -101 30 -96 15 5 12 133 -4 152 -26 31 -33 16
-26 -56z"/>
<path d="M4311 5528 c-38 -80 -39 -97 -6 -98 6 0 29 36 50 81 33 67 37 81 25
89 -8 5 -18 10 -23 10 -4 0 -25 -37 -46 -82z"/>
<path d="M1528 5554 c-78 -42 -22 -152 62 -123 35 13 50 35 50 78 0 53 -56 76
-112 45z m68 -50 c7 -28 -2 -44 -25 -44 -27 0 -44 45 -25 64 19 19 43 10 50
-20z"/>
<path d="M4437 5554 c-4 -4 -4 -10 -2 -14 6 -10 45 0 45 11 0 10 -33 12 -43 3z"/>
<path d="M1370 5520 c0 -5 -11 -10 -24 -10 -22 0 -41 -21 -30 -33 9 -8 74 27
74 40 0 7 -4 13 -10 13 -5 0 -10 -4 -10 -10z"/>
<path d="M4381 5461 l-30 -58 23 -11 c22 -10 25 -6 51 50 23 49 25 62 14 69
-23 15 -28 11 -58 -50z"/>
<path d="M1375 5475 c-30 -16 -55 -42 -55 -57 0 -15 30 -8 47 12 18 21 43 27
43 11 0 -5 -14 -21 -31 -35 -21 -18 -29 -33 -27 -48 4 -30 46 -36 73 -10 12
10 33 22 48 26 27 6 27 7 11 39 -20 39 -54 77 -68 77 -6 0 -24 -7 -41 -15z
m43 -106 c-23 -15 -33 9 -12 32 l19 21 3 -22 c2 -13 -2 -26 -10 -31z"/>
<path d="M4470 5440 c-11 -11 -20 -33 -20 -49 0 -38 51 -83 89 -79 39 5 33 32
-9 38 -38 5 -51 30 -30 55 17 21 43 19 63 -5 21 -25 37 -26 37 -1 0 25 -50 61
-84 61 -14 0 -35 -9 -46 -20z"/>
<path d="M4677 5417 c-6 -17 29 -41 38 -26 7 10 -12 39 -25 39 -4 0 -10 -6
-13 -13z"/>
<path d="M1195 5366 c-53 -50 -13 -125 68 -128 42 -1 44 -4 20 -31 -17 -18
-17 -18 9 -6 32 14 45 41 25 53 -12 8 -12 13 1 38 8 16 12 32 9 35 -11 10 -45
-8 -50 -27 -7 -29 -45 -26 -59 5 -13 29 5 60 30 50 15 -6 42 11 42 26 0 20
-69 9 -95 -15z"/>
<path d="M4623 5328 c-27 -45 -30 -55 -18 -67 17 -18 28 -10 63 48 22 36 27
52 19 60 -20 20 -32 12 -64 -41z"/>
<path d="M4720 5301 c0 -11 25 -32 36 -30 22 4 34 -2 34 -17 0 -12 -5 -15 -22
-9 -13 4 -39 8 -58 9 -26 1 -35 -3 -38 -17 -4 -22 25 -57 47 -57 9 0 24 -9 34
-20 10 -12 22 -18 27 -15 18 11 60 92 55 106 -13 34 -115 79 -115 50z m34 -77
c21 -8 20 -20 0 -28 -19 -7 -47 12 -38 25 6 11 16 11 38 3z"/>
<path d="M1064 5271 c-39 -24 -56 -47 -52 -68 3 -15 9 -13 33 15 50 54 64 35
18 -25 -21 -27 -24 -39 -16 -51 18 -29 48 -26 77 8 14 17 26 29 26 25 0 -3 9
-1 20 5 19 10 19 11 -8 49 -37 54 -62 64 -98 42z m59 -75 c6 -16 -11 -36 -30
-36 -16 0 -16 5 -3 31 12 22 26 25 33 5z"/>
<path d="M907 5216 c-14 -11 -15 -15 -4 -25 11 -8 18 -7 31 7 25 29 5 42 -27
18z"/>
<path d="M4955 5148 c-81 -102 -76 -93 -56 -105 14 -9 23 -3 57 38 21 26 42
48 46 49 3 0 -7 -28 -24 -61 -25 -54 -27 -64 -15 -76 12 -12 20 -10 60 17 26
17 49 35 52 41 4 5 11 9 17 9 5 0 -9 -22 -31 -49 -23 -27 -41 -53 -41 -59 0
-12 30 -38 30 -26 0 5 15 25 33 45 17 20 42 49 55 64 l24 27 -23 24 c-12 13
-26 24 -30 24 -4 0 -28 -15 -52 -34 -25 -19 -47 -32 -50 -30 -2 3 7 27 22 54
l26 49 -24 25 c-14 14 -27 26 -30 26 -3 -1 -24 -24 -46 -52z"/>
<path d="M940 5175 c-9 -11 -6 -23 19 -59 39 -56 49 -62 68 -43 13 13 11 20
-23 65 -43 56 -46 58 -64 37z"/>
<path d="M829 5081 c-34 -35 -38 -72 -9 -101 26 -26 70 -26 103 0 44 35 49 92
6 69 -12 -6 -18 -13 -15 -16 10 -10 -15 -33 -35 -33 -22 0 -41 32 -33 54 3 9
14 16 23 16 18 0 41 18 41 32 0 20 -54 6 -81 -21z"/>
<path d="M5195 5010 c-10 -17 22 -47 35 -34 7 7 4 16 -9 28 -14 12 -21 14 -26
6z"/>
<path d="M720 4977 c-13 -7 -32 -24 -43 -38 -25 -34 -13 -78 26 -97 31 -15 54
-10 85 19 56 51 -2 149 -68 116z m49 -56 c16 -28 -9 -57 -36 -43 -23 13 -36
39 -27 53 10 16 53 10 63 -10z"/>
<path d="M5116 4931 c-48 -49 -48 -49 -26 -61 20 -11 27 -8 68 33 39 39 44 48
33 61 -8 9 -16 16 -20 16 -4 0 -28 -22 -55 -49z"/>
<path d="M5200 4885 c-61 -61 -63 -66 -47 -82 16 -16 21 -13 83 50 56 56 65
69 54 82 -7 8 -15 15 -19 15 -4 0 -36 -29 -71 -65z"/>
<path d="M5325 4870 c-10 -17 22 -47 35 -34 7 7 4 16 -9 28 -14 12 -21 14 -26
6z"/>
<path d="M565 4825 c-29 -28 -32 -57 -9 -76 14 -11 22 -10 55 9 45 26 49 27
49 8 0 -8 -12 -21 -27 -28 -32 -16 -42 -38 -16 -38 20 0 67 44 75 70 8 23 -10
50 -33 50 -11 0 -33 -10 -49 -22 -43 -31 -51 -12 -10 23 32 26 33 28 12 29
-13 0 -34 -11 -47 -25z"/>
<path d="M5242 4797 c-41 -42 -42 -44 -24 -60 17 -16 21 -14 65 31 37 37 45
50 35 60 -19 19 -31 14 -76 -31z"/>
<path d="M5343 4773 c-7 -3 -10 -10 -7 -18 3 -7 -8 -23 -25 -36 -35 -26 -38
-44 -15 -77 12 -18 19 -20 29 -12 8 6 11 18 8 27 -8 21 37 56 54 41 9 -7 14
-5 19 8 3 11 10 27 15 37 6 11 8 22 4 25 -7 7 -65 10 -82 5z"/>
<path d="M469 4707 c-25 -19 -41 -56 -34 -77 8 -26 42 -25 75 0 30 24 40 25
40 5 0 -9 -11 -20 -24 -24 -29 -12 -43 -41 -18 -41 41 1 88 69 71 102 -13 24
-51 23 -74 -2 -19 -21 -45 -27 -45 -10 0 5 11 17 25 26 14 9 25 20 25 25 0 13
-22 11 -41 -4z"/>
<path d="M5424 4644 c3 -9 6 -18 6 -20 0 -2 7 -4 15 -4 17 0 39 -36 27 -44 -5
-3 -25 9 -45 25 -46 38 -71 35 -75 -8 -3 -25 2 -35 22 -49 14 -9 26 -22 26
-29 0 -7 6 -17 13 -23 10 -8 24 -2 57 27 38 32 42 41 36 65 -4 15 -18 39 -31
52 -28 28 -61 33 -51 8z m-3 -64 c23 -13 25 -26 4 -34 -17 -6 -48 21 -40 35 8
11 12 11 36 -1z"/>
<path d="M297 4566 c-15 -22 -13 -27 35 -105 48 -78 51 -81 69 -65 13 12 16
21 9 34 -12 23 25 74 50 67 14 -4 40 20 40 37 0 5 -162 56 -178 56 -5 0 -17
-11 -25 -24z m77 -36 c28 -10 31 -17 17 -39 -8 -12 -13 -11 -30 10 -32 38 -29
45 13 29z"/>
<path d="M5498 4488 c-27 -16 -48 -36 -48 -44 0 -23 28 -28 55 -10 27 18 61
21 70 6 7 -11 35 -2 35 11 0 5 -10 14 -22 19 -13 5 -19 9 -15 9 4 1 3 10 -3
21 -13 25 -15 25 -72 -12z"/>
<path d="M1415 143 c-43 -81 -45 -88 -29 -100 28 -20 39 -16 58 24 17 36 19
37 32 18 8 -10 14 -34 14 -52 0 -30 3 -33 30 -33 32 0 38 16 20 51 -9 16 -7
19 13 19 48 0 75 61 40 92 -17 15 -116 68 -127 68 -2 0 -25 -39 -51 -87z m120
13 c20 -14 15 -46 -8 -46 -24 0 -48 25 -41 43 7 21 24 22 49 3z"/>
<path d="M4385 148 c-71 -38 -53 -148 24 -148 31 0 89 34 98 55 10 27 -6 30
-37 7 -16 -12 -36 -22 -44 -22 -32 0 -22 17 25 43 27 16 49 32 49 36 0 4 -8
15 -18 24 -21 19 -67 22 -97 5z m53 -36 c4 -12 -37 -33 -51 -25 -4 2 -2 13 4
24 11 22 40 22 47 1z"/>
<path d="M1650 116 c0 -20 40 -32 51 -15 5 8 3 17 -4 21 -20 13 -47 9 -47 -6z"/>
<path d="M4223 118 c-22 -28 -23 -106 -2 -92 5 3 12 -2 15 -10 4 -10 18 -16
35 -16 27 0 29 2 23 26 -4 16 -2 29 5 33 18 12 2 43 -19 36 -13 -4 -20 1 -25
15 -7 23 -18 26 -32 8z"/>
<path d="M1617 45 c-22 -46 -22 -45 12 -45 23 0 31 6 41 31 11 26 11 32 -1 40
-24 15 -35 10 -52 -26z"/>
<path d="M4153 43 c-7 -2 -13 -11 -13 -19 0 -7 -6 -11 -14 -8 -8 3 -23 1 -33
-5 -14 -8 -7 -10 35 -11 49 0 52 1 52 25 0 25 -4 28 -27 18z"/>
<path d="M1714 15 c-17 -13 -13 -14 46 -14 61 0 64 1 40 14 -32 19 -61 19 -86
0z"/>
</g>
</svg>
